<svg width="0" height="0" class="hidden">
<symbol viewBox="0 0 16 16" fill="none" xmlns="http://www.w3.org/2000/svg" id="login">
<path d="M13.4143 11.9312C13.1196 11.2331 12.6919 10.5989 12.155 10.0641C11.6197 9.52767 10.9856 9.10001 10.2878 8.80469C10.2815 8.80156 10.2753 8.8 10.269 8.79688C11.2425 8.09375 11.8753 6.94844 11.8753 5.65625C11.8753 3.51562 10.1409 1.78125 8.00028 1.78125C5.85966 1.78125 4.12528 3.51562 4.12528 5.65625C4.12528 6.94844 4.7581 8.09375 5.73153 8.79844C5.72528 8.80156 5.71903 8.80312 5.71278 8.80625C5.01278 9.10156 4.38466 9.525 3.8456 10.0656C3.3092 10.6009 2.88154 11.235 2.58622 11.9328C2.2961 12.616 2.13963 13.3485 2.12528 14.0906C2.12487 14.1073 2.12779 14.1239 2.13389 14.1394C2.13998 14.1549 2.14912 14.1691 2.16077 14.181C2.17242 14.193 2.18634 14.2025 2.20171 14.2089C2.21709 14.2154 2.2336 14.2188 2.25028 14.2188H3.18778C3.25653 14.2188 3.31122 14.1641 3.31278 14.0969C3.34403 12.8906 3.82841 11.7609 4.68466 10.9047C5.5706 10.0188 6.74716 9.53125 8.00028 9.53125C9.25341 9.53125 10.43 10.0188 11.3159 10.9047C12.1722 11.7609 12.6565 12.8906 12.6878 14.0969C12.6893 14.1656 12.744 14.2188 12.8128 14.2188H13.7503C13.767 14.2188 13.7835 14.2154 13.7989 14.2089C13.8142 14.2025 13.8281 14.193 13.8398 14.181C13.8514 14.1691 13.8606 14.1549 13.8667 14.1394C13.8728 14.1239 13.8757 14.1073 13.8753 14.0906C13.8597 13.3437 13.705 12.6172 13.4143 11.9312V11.9312ZM8.00028 8.34375C7.2831 8.34375 6.6081 8.06406 6.10028 7.55625C5.59247 7.04844 5.31278 6.37344 5.31278 5.65625C5.31278 4.93906 5.59247 4.26406 6.10028 3.75625C6.6081 3.24844 7.2831 2.96875 8.00028 2.96875C8.71747 2.96875 9.39247 3.24844 9.90028 3.75625C10.4081 4.26406 10.6878 4.93906 10.6878 5.65625C10.6878 6.37344 10.4081 7.04844 9.90028 7.55625C9.39247 8.06406 8.71747 8.34375 8.00028 8.34375Z" fill="white"/>
</symbol>
    <symbol viewBox="0 0 16 16" fill="none" xmlns="http://www.w3.org/2000/svg" id="basket">
        <path d="M14.4202 10.9672H5.11549L5.58268 10.0156L13.3452 10.0016C13.6077 10.0016 13.8327 9.81406 13.8796 9.55469L14.9546 3.5375C14.9827 3.37969 14.9405 3.21719 14.8374 3.09375C14.7864 3.033 14.7228 2.98407 14.6511 2.95034C14.5793 2.91661 14.501 2.8989 14.4217 2.89844L4.54674 2.86562L4.46237 2.46875C4.40924 2.21562 4.18112 2.03125 3.92174 2.03125H1.50768C1.36139 2.03125 1.2211 2.08936 1.11766 2.1928C1.01423 2.29624 0.956116 2.43653 0.956116 2.58281C0.956116 2.7291 1.01423 2.86939 1.11766 2.97283C1.2211 3.07626 1.36139 3.13438 1.50768 3.13438H3.47487L3.84362 4.8875L4.75143 9.28281L3.58268 11.1906C3.52198 11.2725 3.48543 11.3698 3.47714 11.4714C3.46886 11.573 3.48918 11.675 3.5358 11.7656C3.62955 11.9516 3.81862 12.0688 4.02799 12.0688H5.00924C4.80005 12.3466 4.68706 12.685 4.68737 13.0328C4.68737 13.9172 5.40612 14.6359 6.29049 14.6359C7.17487 14.6359 7.89362 13.9172 7.89362 13.0328C7.89362 12.6844 7.77799 12.3453 7.57174 12.0688H10.0889C9.87974 12.3466 9.76675 12.685 9.76705 13.0328C9.76705 13.9172 10.4858 14.6359 11.3702 14.6359C12.2546 14.6359 12.9733 13.9172 12.9733 13.0328C12.9733 12.6844 12.8577 12.3453 12.6514 12.0688H14.4217C14.7249 12.0688 14.9733 11.8219 14.9733 11.5172C14.9724 11.3711 14.9137 11.2312 14.8101 11.1282C14.7065 11.0251 14.5663 10.9673 14.4202 10.9672V10.9672ZM4.77643 3.95312L13.7733 3.98281L12.8921 8.91719L5.82487 8.92969L4.77643 3.95312ZM6.29049 13.5266C6.01862 13.5266 5.79674 13.3047 5.79674 13.0328C5.79674 12.7609 6.01862 12.5391 6.29049 12.5391C6.56237 12.5391 6.78424 12.7609 6.78424 13.0328C6.78424 13.1638 6.73222 13.2894 6.63962 13.3819C6.54703 13.4745 6.42144 13.5266 6.29049 13.5266V13.5266ZM11.3702 13.5266C11.0983 13.5266 10.8764 13.3047 10.8764 13.0328C10.8764 12.7609 11.0983 12.5391 11.3702 12.5391C11.6421 12.5391 11.8639 12.7609 11.8639 13.0328C11.8639 13.1638 11.8119 13.2894 11.7193 13.3819C11.6267 13.4745 11.5011 13.5266 11.3702 13.5266V13.5266Z" fill="#8C8C8C"/>
    </symbol>
<symbol viewBox="0 0 26 26" fill="none" xmlns="http://www.w3.org/2000/svg" id="facebook">
<path d="M22.8228 0.314819H4.07275C2.34932 0.314819 0.947754 1.71638 0.947754 3.43982V22.1898C0.947754 23.9133 2.34932 25.3148 4.07275 25.3148H22.8228C24.5462 25.3148 25.9478 23.9133 25.9478 22.1898V3.43982C25.9478 1.71638 24.5462 0.314819 22.8228 0.314819Z" fill="#1976D2"/>
<path d="M22.0415 12.8148H18.1353V9.68982C18.1353 8.82732 18.8353 8.90857 19.6978 8.90857H21.2603V5.00232H18.1353C15.5462 5.00232 13.4478 7.10076 13.4478 9.68982V12.8148H10.3228V16.7211H13.4478V25.3148H18.1353V16.7211H20.479L22.0415 12.8148Z" fill="#FAFAFA"/>
</symbol>
<symbol viewBox="0 0 36 21" fill="none" xmlns="http://www.w3.org/2000/svg" id="vk">
<path d="M18.0988 20.7306H20.1934C20.1934 20.7306 20.8266 20.6605 21.1486 20.3121C21.4466 19.9922 21.4356 19.3919 21.4356 19.3919C21.4356 19.3919 21.394 16.5809 22.6998 16.1669C23.9859 15.7593 25.6378 18.8836 27.3884 20.0864C28.7117 20.9957 29.7173 20.7963 29.7173 20.7963L34.3994 20.7306C34.3994 20.7306 36.8488 20.5794 35.6876 18.6536C35.5934 18.4958 35.0106 17.2295 32.2062 14.6266C29.2704 11.9011 29.6648 12.3437 33.2009 7.63099C35.3546 4.76087 36.2156 3.00813 35.9462 2.25883C35.6898 1.54458 34.1058 1.733 34.1058 1.733L28.8388 1.76368C28.8388 1.76368 28.4488 1.7111 28.1574 1.88418C27.8748 2.05507 27.6929 2.44944 27.6929 2.44944C27.6929 2.44944 26.8582 4.67104 25.7452 6.55962C23.3987 10.5449 22.4588 10.7553 22.0754 10.5077C21.1837 9.93147 21.4071 8.18968 21.4071 6.95399C21.4071 3.09138 21.9921 1.48105 20.2657 1.06477C19.6917 0.926742 19.271 0.834723 17.8053 0.819387C15.9254 0.799668 14.3326 0.82596 13.4322 1.26634C12.8318 1.55992 12.3696 2.21501 12.6522 2.25226C13.0005 2.29827 13.7893 2.46478 14.2078 3.03442C14.7489 3.76838 14.7292 5.42034 14.7292 5.42034C14.7292 5.42034 15.0403 9.96652 14.004 10.5318C13.2919 10.9196 12.317 10.1286 10.2246 6.51142C9.15328 4.66009 8.34263 2.61157 8.34263 2.61157C8.34263 2.61157 8.18708 2.23035 7.90883 2.02659C7.57142 1.77901 7.09818 1.70014 7.09818 1.70014L2.08972 1.73081C2.08972 1.73081 1.33823 1.75272 1.06217 2.07917C0.816787 2.37057 1.04245 2.97088 1.04245 2.97088C1.04245 2.97088 4.96422 12.1443 9.40304 16.7694C13.476 21.0088 18.0988 20.7306 18.0988 20.7306Z" fill="#1E88E5"/>
</symbol>
</svg>